# xmcd CD database file
#
# Track frame offsets:
#	150
#	24442
#	45832
#	64806
#	92049
#	112073
#	133977
#	159808
#	179411
#	206900
#	232108
#	251437
#
# Disc length: 3651 seconds
#
# Revision: 0
# Processed by: cddbd v1.5.2PL0 Copyright (c) Steve Scherf et al.
# Submitted via: CDex 1.51
#
DISCID=a30e410c
DTITLE=Kengo Nakamura - Re: Standards
DYEAR=2006
DGENRE=Jazz
TTITLE0=It's All Right With Me
TTITLE1=Someday My Prince Will Come
TTITLE2=If I Should Lose You
TTITLE3=All The Way
TTITLE4=Bourbon Street Parade
TTITLE5=Do You Know What It Means To Miss New Orleans
TTITLE6=Hymn To Freedom
TTITLE7=Stella
TTITLE8=Midnight Blues
TTITLE9=All The Things You Are
TTITLE10=Hope
TTITLE11=What A Wonderful World
EXTD=YEAR: 2006
EXTT0=
EXTT1=
EXTT2=
EXTT3=
EXTT4=
EXTT5=
EXTT6=
EXTT7=
EXTT8=
EXTT9=
EXTT10=
EXTT11=
PLAYORDER=
